<svg xmlns="http://www.w3.org/2000/svg" xmlns:xlink="http://www.w3.org/1999/xlink" width="500" zoomAndPan="magnify" viewBox="0 0 375 374.999991" height="500" preserveAspectRatio="xMidYMid meet" version="1.0"><path fill="#ffffff" d="M 187.5 11.671875 C 90.546875 11.671875 11.671875 90.546875 11.671875 187.5 C 11.671875 284.453125 90.546875 363.328125 187.5 363.328125 C 284.453125 363.328125 363.328125 284.453125 363.328125 187.5 C 363.328125 90.546875 284.453125 11.671875 187.5 11.671875 Z M 187.5 375 C 137.417969 375 90.332031 355.496094 54.917969 320.082031 C 19.503906 284.667969 0 237.582031 0 187.5 C 0 137.417969 19.503906 90.332031 54.917969 54.917969 C 90.332031 19.503906 137.417969 0 187.5 0 C 237.582031 0 284.667969 19.503906 320.082031 54.917969 C 355.496094 90.332031 375 137.417969 375 187.5 C 375 237.582031 355.496094 284.667969 320.082031 320.082031 C 284.667969 355.496094 237.582031 375 187.5 375 " fill-opacity="1" fill-rule="nonzero"/><path fill="#ffffff" d="M 276.503906 256.082031 C 275.339844 256.082031 274.164062 255.734375 273.144531 255.015625 L 184.136719 192.269531 C 182.585938 191.175781 181.664062 189.398438 181.664062 187.5 L 181.664062 95.574219 C 181.664062 92.347656 184.277344 89.734375 187.5 89.734375 C 190.722656 89.734375 193.335938 92.347656 193.335938 95.574219 L 193.335938 184.472656 L 279.871094 245.472656 C 282.507812 247.328125 283.136719 250.972656 281.277344 253.605469 C 280.140625 255.214844 278.335938 256.082031 276.503906 256.082031 " fill-opacity="1" fill-rule="nonzero"/><path fill="#ffffff" d="M 187.5 52.011719 C 184.277344 52.011719 181.664062 49.398438 181.664062 46.175781 L 181.664062 24.546875 C 181.664062 21.324219 184.277344 18.710938 187.5 18.710938 C 190.722656 18.710938 193.335938 21.324219 193.335938 24.546875 L 193.335938 46.175781 C 193.335938 49.398438 190.722656 52.011719 187.5 52.011719 " fill-opacity="1" fill-rule="nonzero"/><path fill="#ffffff" d="M 116.84375 70.949219 C 114.824219 70.949219 112.867188 69.902344 111.785156 68.03125 L 100.96875 49.296875 C 99.355469 46.503906 100.316406 42.9375 103.105469 41.324219 C 105.898438 39.710938 109.46875 40.667969 111.078125 43.460938 L 121.890625 62.195312 C 123.507812 64.984375 122.546875 68.554688 119.757812 70.164062 C 118.835938 70.695312 117.835938 70.949219 116.84375 70.949219 " fill-opacity="1" fill-rule="nonzero"/><path fill="#ffffff" d="M 65.105469 122.675781 C 64.117188 122.675781 63.113281 122.421875 62.195312 121.890625 L 43.460938 111.078125 C 40.671875 109.46875 39.714844 105.894531 41.324219 103.105469 C 42.9375 100.316406 46.507812 99.355469 49.296875 100.96875 L 68.03125 111.785156 C 70.824219 113.394531 71.777344 116.964844 70.167969 119.757812 C 69.085938 121.628906 67.121094 122.675781 65.105469 122.675781 " fill-opacity="1" fill-rule="nonzero"/><path fill="#ffffff" d="M 46.179688 193.335938 L 24.546875 193.335938 C 21.324219 193.335938 18.710938 190.722656 18.710938 187.5 C 18.710938 184.277344 21.324219 181.664062 24.546875 181.664062 L 46.179688 181.664062 C 49.402344 181.664062 52.015625 184.277344 52.015625 187.5 C 52.015625 190.722656 49.402344 193.335938 46.179688 193.335938 " fill-opacity="1" fill-rule="nonzero"/><path fill="#ffffff" d="M 46.386719 274.8125 C 44.367188 274.8125 42.40625 273.765625 41.324219 271.894531 C 39.714844 269.101562 40.671875 265.535156 43.460938 263.921875 L 62.195312 253.105469 C 64.988281 251.492188 68.554688 252.449219 70.167969 255.242188 C 71.777344 258.035156 70.824219 261.601562 68.03125 263.214844 L 49.296875 274.03125 C 48.378906 274.5625 47.375 274.8125 46.386719 274.8125 " fill-opacity="1" fill-rule="nonzero"/><path fill="#ffffff" d="M 106.015625 334.457031 C 105.027344 334.457031 104.023438 334.207031 103.105469 333.671875 C 100.316406 332.0625 99.355469 328.492188 100.96875 325.703125 L 111.785156 306.96875 C 113.394531 304.175781 116.96875 303.222656 119.757812 304.832031 C 122.546875 306.445312 123.507812 310.015625 121.890625 312.808594 L 111.078125 331.539062 C 109.996094 333.410156 108.035156 334.457031 106.015625 334.457031 " fill-opacity="1" fill-rule="nonzero"/><path fill="#ffffff" d="M 187.5 356.289062 C 184.277344 356.289062 181.664062 353.675781 181.664062 350.453125 L 181.664062 328.820312 C 181.664062 325.597656 184.277344 322.984375 187.5 322.984375 C 190.722656 322.984375 193.335938 325.597656 193.335938 328.820312 L 193.335938 350.453125 C 193.335938 353.675781 190.722656 356.289062 187.5 356.289062 " fill-opacity="1" fill-rule="nonzero"/><path fill="#ffffff" d="M 268.984375 334.457031 C 266.964844 334.457031 265 333.410156 263.921875 331.539062 L 253.105469 312.808594 C 251.496094 310.015625 252.449219 306.445312 255.242188 304.832031 C 258.035156 303.222656 261.601562 304.179688 263.214844 306.96875 L 274.03125 325.703125 C 275.640625 328.492188 274.683594 332.0625 271.894531 333.675781 C 270.976562 334.207031 269.96875 334.457031 268.984375 334.457031 " fill-opacity="1" fill-rule="nonzero"/><path fill="#ffffff" d="M 328.613281 274.8125 C 327.625 274.8125 326.621094 274.5625 325.703125 274.03125 L 306.96875 263.214844 C 304.175781 261.601562 303.222656 258.035156 304.832031 255.242188 C 306.445312 252.449219 310.015625 251.496094 312.804688 253.105469 L 331.539062 263.921875 C 334.328125 265.535156 335.289062 269.101562 333.675781 271.894531 C 332.59375 273.765625 330.632812 274.8125 328.613281 274.8125 " fill-opacity="1" fill-rule="nonzero"/><path fill="#ffffff" d="M 350.453125 193.335938 L 328.820312 193.335938 C 325.597656 193.335938 322.984375 190.722656 322.984375 187.5 C 322.984375 184.277344 325.597656 181.664062 328.820312 181.664062 L 350.453125 181.664062 C 353.675781 181.664062 356.289062 184.277344 356.289062 187.5 C 356.289062 190.722656 353.675781 193.335938 350.453125 193.335938 " fill-opacity="1" fill-rule="nonzero"/><path fill="#ffffff" d="M 309.894531 122.675781 C 307.878906 122.675781 305.914062 121.628906 304.832031 119.757812 C 303.222656 116.964844 304.175781 113.394531 306.96875 111.785156 L 325.703125 100.96875 C 328.492188 99.355469 332.0625 100.316406 333.675781 103.105469 C 335.289062 105.894531 334.328125 109.46875 331.539062 111.078125 L 312.804688 121.890625 C 311.886719 122.421875 310.882812 122.675781 309.894531 122.675781 " fill-opacity="1" fill-rule="nonzero"/><path fill="#ffffff" d="M 258.15625 70.949219 C 257.164062 70.949219 256.164062 70.695312 255.242188 70.164062 C 252.449219 68.554688 251.496094 64.984375 253.105469 62.195312 L 263.921875 43.460938 C 265.535156 40.667969 269.101562 39.710938 271.894531 41.324219 C 274.683594 42.933594 275.640625 46.503906 274.03125 49.296875 L 263.214844 68.03125 C 262.132812 69.902344 260.171875 70.949219 258.15625 70.949219 " fill-opacity="1" fill-rule="nonzero"/></svg>