<svg xmlns="http://www.w3.org/2000/svg" xmlns:xlink="http://www.w3.org/1999/xlink" zoomAndPan="magnify" preserveAspectRatio="xMidYMid meet" version="1.0" viewBox="0.35 159.82 370.31 56.41"><defs><g/><clipPath id="7de6f6a538"><path d="M 96.742188 159.820312 L 152.992188 159.820312 L 152.992188 216.070312 L 96.742188 216.070312 Z M 96.742188 159.820312 " clip-rule="nonzero"/></clipPath></defs><g fill="#000000" fill-opacity="1"><g transform="translate(-3.976269, 215.636734)"><g><path d="M 45.53125 -8.8125 C 45.78125 -8.8125 45.988281 -8.722656 46.15625 -8.546875 L 47.640625 -6.953125 C 46.554688 -5.796875 45.378906 -4.753906 44.109375 -3.828125 C 42.835938 -2.898438 41.441406 -2.109375 39.921875 -1.453125 C 38.398438 -0.804688 36.734375 -0.304688 34.921875 0.046875 C 33.109375 0.410156 31.117188 0.59375 28.953125 0.59375 C 25.316406 0.59375 21.988281 -0.0390625 18.96875 -1.3125 C 15.945312 -2.582031 13.347656 -4.382812 11.171875 -6.71875 C 9.003906 -9.050781 7.320312 -11.867188 6.125 -15.171875 C 4.925781 -18.484375 4.328125 -22.160156 4.328125 -26.203125 C 4.328125 -30.179688 4.941406 -33.8125 6.171875 -37.09375 C 7.410156 -40.375 9.140625 -43.191406 11.359375 -45.546875 C 13.578125 -47.898438 16.238281 -49.722656 19.34375 -51.015625 C 22.457031 -52.316406 25.894531 -52.96875 29.65625 -52.96875 C 33.226562 -52.96875 36.394531 -52.410156 39.15625 -51.296875 C 41.925781 -50.191406 44.445312 -48.628906 46.71875 -46.609375 L 45.5625 -44.9375 C 45.363281 -44.644531 45.054688 -44.5 44.640625 -44.5 C 44.347656 -44.5 43.867188 -44.769531 43.203125 -45.3125 C 42.535156 -45.851562 41.609375 -46.445312 40.421875 -47.09375 C 39.234375 -47.75 37.753906 -48.347656 35.984375 -48.890625 C 34.222656 -49.441406 32.113281 -49.71875 29.65625 -49.71875 C 26.488281 -49.71875 23.59375 -49.171875 20.96875 -48.078125 C 18.34375 -46.992188 16.082031 -45.441406 14.1875 -43.421875 C 12.300781 -41.398438 10.828125 -38.929688 9.765625 -36.015625 C 8.710938 -33.097656 8.1875 -29.828125 8.1875 -26.203125 C 8.1875 -22.503906 8.722656 -19.195312 9.796875 -16.28125 C 10.867188 -13.375 12.34375 -10.914062 14.21875 -8.90625 C 16.09375 -6.894531 18.304688 -5.351562 20.859375 -4.28125 C 23.410156 -3.207031 26.164062 -2.671875 29.125 -2.671875 C 31 -2.671875 32.671875 -2.789062 34.140625 -3.03125 C 35.609375 -3.28125 36.957031 -3.648438 38.1875 -4.140625 C 39.425781 -4.640625 40.578125 -5.242188 41.640625 -5.953125 C 42.703125 -6.671875 43.75 -7.515625 44.78125 -8.484375 C 44.90625 -8.578125 45.03125 -8.65625 45.15625 -8.71875 C 45.28125 -8.78125 45.40625 -8.8125 45.53125 -8.8125 Z M 45.53125 -8.8125 "/></g></g></g><g fill="#000000" fill-opacity="1"><g transform="translate(54.65427, 215.636734)"><g><path d="M 36.34375 -3.21875 L 36.34375 0 L 7.734375 0 L 7.734375 -52.375 L 11.546875 -52.375 L 11.546875 -3.21875 Z M 36.34375 -3.21875 "/></g></g></g><g fill="#000000" fill-opacity="1"><g transform="translate(100.707322, 215.636734)"><g/></g></g><g fill="#000000" fill-opacity="1"><g transform="translate(129.393868, 215.636734)"><g/></g></g><g fill="#000000" fill-opacity="1"><g transform="translate(158.082318, 215.636734)"><g><path d="M 45.53125 -8.8125 C 45.78125 -8.8125 45.988281 -8.722656 46.15625 -8.546875 L 47.640625 -6.953125 C 46.554688 -5.796875 45.378906 -4.753906 44.109375 -3.828125 C 42.835938 -2.898438 41.441406 -2.109375 39.921875 -1.453125 C 38.398438 -0.804688 36.734375 -0.304688 34.921875 0.046875 C 33.109375 0.410156 31.117188 0.59375 28.953125 0.59375 C 25.316406 0.59375 21.988281 -0.0390625 18.96875 -1.3125 C 15.945312 -2.582031 13.347656 -4.382812 11.171875 -6.71875 C 9.003906 -9.050781 7.320312 -11.867188 6.125 -15.171875 C 4.925781 -18.484375 4.328125 -22.160156 4.328125 -26.203125 C 4.328125 -30.179688 4.941406 -33.8125 6.171875 -37.09375 C 7.410156 -40.375 9.140625 -43.191406 11.359375 -45.546875 C 13.578125 -47.898438 16.238281 -49.722656 19.34375 -51.015625 C 22.457031 -52.316406 25.894531 -52.96875 29.65625 -52.96875 C 33.226562 -52.96875 36.394531 -52.410156 39.15625 -51.296875 C 41.925781 -50.191406 44.445312 -48.628906 46.71875 -46.609375 L 45.5625 -44.9375 C 45.363281 -44.644531 45.054688 -44.5 44.640625 -44.5 C 44.347656 -44.5 43.867188 -44.769531 43.203125 -45.3125 C 42.535156 -45.851562 41.609375 -46.445312 40.421875 -47.09375 C 39.234375 -47.75 37.753906 -48.347656 35.984375 -48.890625 C 34.222656 -49.441406 32.113281 -49.71875 29.65625 -49.71875 C 26.488281 -49.71875 23.59375 -49.171875 20.96875 -48.078125 C 18.34375 -46.992188 16.082031 -45.441406 14.1875 -43.421875 C 12.300781 -41.398438 10.828125 -38.929688 9.765625 -36.015625 C 8.710938 -33.097656 8.1875 -29.828125 8.1875 -26.203125 C 8.1875 -22.503906 8.722656 -19.195312 9.796875 -16.28125 C 10.867188 -13.375 12.34375 -10.914062 14.21875 -8.90625 C 16.09375 -6.894531 18.304688 -5.351562 20.859375 -4.28125 C 23.410156 -3.207031 26.164062 -2.671875 29.125 -2.671875 C 31 -2.671875 32.671875 -2.789062 34.140625 -3.03125 C 35.609375 -3.28125 36.957031 -3.648438 38.1875 -4.140625 C 39.425781 -4.640625 40.578125 -5.242188 41.640625 -5.953125 C 42.703125 -6.671875 43.75 -7.515625 44.78125 -8.484375 C 44.90625 -8.578125 45.03125 -8.65625 45.15625 -8.71875 C 45.28125 -8.78125 45.40625 -8.8125 45.53125 -8.8125 Z M 45.53125 -8.8125 "/></g></g></g><g fill="#000000" fill-opacity="1"><g transform="translate(216.712857, 215.636734)"><g><path d="M 11.546875 -28.203125 L 14.65625 -28.203125 C 15.125 -28.203125 15.53125 -28.21875 15.875 -28.25 C 16.21875 -28.289062 16.53125 -28.359375 16.8125 -28.453125 C 17.101562 -28.554688 17.363281 -28.703125 17.59375 -28.890625 C 17.832031 -29.078125 18.085938 -29.304688 18.359375 -29.578125 L 39.5 -51.296875 C 39.863281 -51.722656 40.222656 -52.007812 40.578125 -52.15625 C 40.941406 -52.300781 41.367188 -52.375 41.859375 -52.375 L 44.90625 -52.375 L 22.03125 -28.875 C 21.5625 -28.375 21.144531 -27.988281 20.78125 -27.71875 C 20.425781 -27.445312 20.023438 -27.226562 19.578125 -27.0625 C 20.097656 -26.914062 20.566406 -26.6875 20.984375 -26.375 C 21.398438 -26.0625 21.820312 -25.660156 22.25 -25.171875 L 46.34375 0 L 43.265625 0 C 42.628906 0 42.164062 -0.078125 41.875 -0.234375 C 41.59375 -0.398438 41.316406 -0.65625 41.046875 -1 L 18.921875 -23.65625 C 18.648438 -23.925781 18.394531 -24.160156 18.15625 -24.359375 C 17.914062 -24.554688 17.65625 -24.722656 17.375 -24.859375 C 17.09375 -24.992188 16.757812 -25.09375 16.375 -25.15625 C 16 -25.21875 15.515625 -25.25 14.921875 -25.25 L 11.546875 -25.25 L 11.546875 0 L 7.734375 0 L 7.734375 -52.375 L 11.546875 -52.375 Z M 11.546875 -28.203125 "/></g></g></g><g fill="#000000" fill-opacity="1"><g transform="translate(272.308286, 215.636734)"><g/></g></g><g fill="#000000" fill-opacity="1"><g transform="translate(300.994834, 215.636734)"><g><path d="M 11.546875 0 L 7.734375 0 L 7.734375 -52.375 L 11.546875 -52.375 Z M 11.546875 0 "/></g></g></g><g fill="#000000" fill-opacity="1"><g transform="translate(328.86709, 215.636734)"><g><path d="M 41.796875 -49.15625 L 23.390625 -49.15625 L 23.390625 0 L 19.578125 0 L 19.578125 -49.15625 L 1.078125 -49.15625 L 1.078125 -52.375 L 41.796875 -52.375 Z M 41.796875 -49.15625 "/></g></g></g><g clip-path="url(#7de6f6a538)"><path fill="#000000" d="M 124.867188 161.570312 C 110.324219 161.570312 98.496094 173.402344 98.496094 187.945312 C 98.496094 202.488281 110.324219 214.320312 124.867188 214.320312 C 139.410156 214.320312 151.242188 202.488281 151.242188 187.945312 C 151.242188 173.402344 139.410156 161.570312 124.867188 161.570312 Z M 124.867188 216.070312 C 117.355469 216.070312 110.292969 213.144531 104.980469 207.832031 C 99.667969 202.519531 96.742188 195.457031 96.742188 187.945312 C 96.742188 180.433594 99.667969 173.371094 104.980469 168.058594 C 110.292969 162.746094 117.355469 159.820312 124.867188 159.820312 C 132.382812 159.820312 139.445312 162.746094 144.757812 168.058594 C 150.066406 173.371094 152.992188 180.433594 152.992188 187.945312 C 152.992188 195.457031 150.066406 202.519531 144.757812 207.832031 C 139.445312 213.144531 132.382812 216.070312 124.867188 216.070312 " fill-opacity="1" fill-rule="nonzero"/></g><path fill="#000000" d="M 138.21875 198.230469 C 138.042969 198.230469 137.867188 198.179688 137.714844 198.070312 L 124.363281 188.660156 C 124.132812 188.496094 123.992188 188.230469 123.992188 187.945312 L 123.992188 174.15625 C 123.992188 173.671875 124.386719 173.28125 124.867188 173.28125 C 125.351562 173.28125 125.742188 173.671875 125.742188 174.15625 L 125.742188 187.492188 L 138.722656 196.640625 C 139.121094 196.917969 139.214844 197.464844 138.933594 197.859375 C 138.765625 198.101562 138.492188 198.230469 138.21875 198.230469 " fill-opacity="1" fill-rule="nonzero"/><path fill="#000000" d="M 124.867188 167.621094 C 124.386719 167.621094 123.992188 167.230469 123.992188 166.746094 L 123.992188 163.5 C 123.992188 163.019531 124.386719 162.625 124.867188 162.625 C 125.351562 162.625 125.742188 163.019531 125.742188 163.5 L 125.742188 166.746094 C 125.742188 167.230469 125.351562 167.621094 124.867188 167.621094 " fill-opacity="1" fill-rule="nonzero"/><path fill="#000000" d="M 114.269531 170.460938 C 113.96875 170.460938 113.671875 170.304688 113.511719 170.023438 L 111.890625 167.214844 C 111.648438 166.796875 111.789062 166.261719 112.210938 166.019531 C 112.628906 165.777344 113.164062 165.921875 113.40625 166.339844 L 115.027344 169.148438 C 115.269531 169.566406 115.125 170.101562 114.707031 170.34375 C 114.570312 170.425781 114.417969 170.460938 114.269531 170.460938 " fill-opacity="1" fill-rule="nonzero"/><path fill="#000000" d="M 106.507812 178.222656 C 106.359375 178.222656 106.210938 178.183594 106.074219 178.105469 L 103.261719 176.480469 C 102.84375 176.238281 102.699219 175.703125 102.941406 175.285156 C 103.183594 174.867188 103.71875 174.722656 104.136719 174.964844 L 106.949219 176.585938 C 107.367188 176.828125 107.511719 177.363281 107.269531 177.785156 C 107.105469 178.0625 106.8125 178.222656 106.507812 178.222656 " fill-opacity="1" fill-rule="nonzero"/><path fill="#000000" d="M 103.671875 188.820312 L 100.425781 188.820312 C 99.941406 188.820312 99.550781 188.429688 99.550781 187.945312 C 99.550781 187.460938 99.941406 187.070312 100.425781 187.070312 L 103.671875 187.070312 C 104.152344 187.070312 104.546875 187.460938 104.546875 187.945312 C 104.546875 188.429688 104.152344 188.820312 103.671875 188.820312 " fill-opacity="1" fill-rule="nonzero"/><path fill="#000000" d="M 103.703125 201.042969 C 103.398438 201.042969 103.105469 200.886719 102.941406 200.605469 C 102.699219 200.183594 102.84375 199.648438 103.261719 199.40625 L 106.074219 197.785156 C 106.492188 197.542969 107.027344 197.6875 107.269531 198.105469 C 107.511719 198.523438 107.367188 199.058594 106.949219 199.300781 L 104.136719 200.925781 C 104 201.003906 103.851562 201.042969 103.703125 201.042969 " fill-opacity="1" fill-rule="nonzero"/><path fill="#000000" d="M 112.644531 209.988281 C 112.496094 209.988281 112.347656 209.949219 112.210938 209.871094 C 111.789062 209.628906 111.648438 209.09375 111.890625 208.675781 L 113.511719 205.863281 C 113.753906 205.445312 114.289062 205.304688 114.707031 205.542969 C 115.125 205.785156 115.269531 206.320312 115.027344 206.742188 L 113.40625 209.550781 C 113.242188 209.832031 112.949219 209.988281 112.644531 209.988281 " fill-opacity="1" fill-rule="nonzero"/><path fill="#000000" d="M 124.867188 213.261719 C 124.386719 213.261719 123.992188 212.871094 123.992188 212.386719 L 123.992188 209.144531 C 123.992188 208.660156 124.386719 208.269531 124.867188 208.269531 C 125.351562 208.269531 125.742188 208.660156 125.742188 209.144531 L 125.742188 212.386719 C 125.742188 212.871094 125.351562 213.261719 124.867188 213.261719 " fill-opacity="1" fill-rule="nonzero"/><path fill="#000000" d="M 137.089844 209.988281 C 136.789062 209.988281 136.492188 209.832031 136.332031 209.550781 L 134.710938 206.742188 C 134.46875 206.320312 134.609375 205.785156 135.03125 205.542969 C 135.449219 205.304688 135.984375 205.445312 136.226562 205.863281 L 137.847656 208.675781 C 138.089844 209.09375 137.945312 209.628906 137.527344 209.871094 C 137.390625 209.949219 137.238281 209.988281 137.089844 209.988281 " fill-opacity="1" fill-rule="nonzero"/><path fill="#000000" d="M 146.035156 201.042969 C 145.886719 201.042969 145.738281 201.003906 145.597656 200.925781 L 142.789062 199.300781 C 142.371094 199.058594 142.226562 198.523438 142.46875 198.105469 C 142.710938 197.6875 143.246094 197.542969 143.664062 197.785156 L 146.472656 199.40625 C 146.894531 199.648438 147.035156 200.183594 146.796875 200.605469 C 146.632812 200.886719 146.339844 201.042969 146.035156 201.042969 " fill-opacity="1" fill-rule="nonzero"/><path fill="#000000" d="M 149.3125 188.820312 L 146.066406 188.820312 C 145.582031 188.820312 145.191406 188.429688 145.191406 187.945312 C 145.191406 187.460938 145.582031 187.070312 146.066406 187.070312 L 149.3125 187.070312 C 149.792969 187.070312 150.1875 187.460938 150.1875 187.945312 C 150.1875 188.429688 149.792969 188.820312 149.3125 188.820312 " fill-opacity="1" fill-rule="nonzero"/><path fill="#000000" d="M 143.226562 178.222656 C 142.925781 178.222656 142.628906 178.0625 142.46875 177.785156 C 142.226562 177.363281 142.371094 176.828125 142.789062 176.585938 L 145.597656 174.964844 C 146.019531 174.722656 146.554688 174.867188 146.796875 175.285156 C 147.035156 175.703125 146.894531 176.238281 146.472656 176.480469 L 143.664062 178.105469 C 143.527344 178.183594 143.375 178.222656 143.226562 178.222656 " fill-opacity="1" fill-rule="nonzero"/><path fill="#000000" d="M 135.464844 170.460938 C 135.316406 170.460938 135.167969 170.425781 135.03125 170.34375 C 134.609375 170.101562 134.46875 169.566406 134.710938 169.148438 L 136.332031 166.339844 C 136.574219 165.921875 137.109375 165.777344 137.527344 166.019531 C 137.945312 166.261719 138.089844 166.796875 137.847656 167.214844 L 136.226562 170.023438 C 136.0625 170.304688 135.769531 170.460938 135.464844 170.460938 " fill-opacity="1" fill-rule="nonzero"/></svg>